<svg width="28" height="28" viewBox="0 0 28 28" fill="none" xmlns="http://www.w3.org/2000/svg">
<rect y="12.4445" width="3.11111" height="3.11111" fill="white"/>
<rect x="3.11108" y="9.33331" width="3.11111" height="3.11111" fill="white"/>
<rect x="6.22217" y="6.22223" width="3.11111" height="3.11111" fill="white"/>
<rect x="9.33337" y="3.11108" width="3.11111" height="3.11111" fill="white"/>
<rect x="3.11108" y="15.5555" width="3.11111" height="3.11111" fill="white"/>
<rect x="6.22217" y="18.6667" width="3.11111" height="3.11111" fill="white"/>
<rect x="9.33337" y="21.7778" width="3.11111" height="3.11111" fill="white"/>
<rect x="3.11108" y="12.4445" width="3.11111" height="3.11111" fill="white"/>
<rect x="6.22217" y="12.4445" width="3.11111" height="3.11111" fill="white"/>
<rect x="9.33337" y="12.4445" width="3.11111" height="3.11111" fill="white"/>
<rect x="12.4445" y="12.4445" width="3.11111" height="3.11111" fill="white"/>
<rect x="15.5555" y="12.4445" width="3.11111" height="3.11111" fill="white"/>
<rect x="18.6666" y="12.4445" width="3.11111" height="3.11111" fill="white"/>
<rect x="21.7778" y="12.4445" width="3.11111" height="3.11111" fill="white"/>
<rect x="24.8889" y="12.4445" width="3.11111" height="3.11111" fill="white"/>
<rect x="12.4445" y="24.8889" width="3.11111" height="3.11111" fill="white"/>
<rect x="12.4445" width="3.11111" height="3.11111" fill="white"/>
</svg>
