<?xml version="1.0" standalone="no"?>
<!DOCTYPE svg PUBLIC "-//W3C//DTD SVG 20010904//EN"
 "http://www.w3.org/TR/2001/REC-SVG-20010904/DTD/svg10.dtd">
<svg version="1.0" xmlns="http://www.w3.org/2000/svg"
 width="160.000000pt" height="160.000000pt" viewBox="0 0 160.000000 160.000000"
 preserveAspectRatio="xMidYMid meet">
<metadata>
Created by potrace 1.14, written by Peter Selinger 2001-2017
</metadata>
<g transform="translate(0.000000,160.000000) scale(0.100000,-0.100000)"
fill="#000000" stroke="none">
<path d="M1000 1423 c-83 -16 -188 -77 -294 -172 -92 -81 -145 -110 -323 -177
-236 -88 -297 -124 -336 -197 -19 -37 -22 -56 -21 -162 1 -132 15 -200 63
-306 61 -135 170 -245 305 -309 64 -30 75 -32 146 -28 117 7 165 35 330 193
191 184 238 214 452 290 134 48 212 94 235 139 21 41 30 245 14 345 -21 134
-74 217 -191 297 -92 63 -186 94 -280 92 -41 0 -86 -3 -100 -5z m161 -44 c8
-12 10 -12 18 0 5 8 18 11 32 8 34 -9 66 -34 55 -44 -5 -4 -11 -2 -13 5 -6 15
-40 16 -45 2 -2 -6 -16 -12 -33 -13 -37 -3 -74 -35 -54 -48 19 -12 28 -11 84
6 27 8 51 12 54 9 3 -3 -8 -16 -24 -30 -27 -22 -28 -26 -13 -36 15 -11 15 -13
0 -24 -13 -10 -14 -15 -5 -25 9 -9 17 -1 33 34 12 26 27 45 33 44 15 -3 21 34
7 43 -15 9 -4 30 15 30 8 0 11 -7 8 -19 -3 -11 2 -21 13 -25 22 -8 33 2 14 14
-8 6 -10 10 -5 10 20 0 38 -17 26 -24 -16 -10 -14 -26 4 -26 8 0 15 6 15 13 0
6 12 -1 25 -16 14 -16 29 -26 34 -22 5 3 13 0 17 -6 3 -6 1 -15 -6 -19 -14 -9
-7 -40 10 -40 5 0 10 7 10 16 0 8 5 12 10 9 6 -3 10 -15 10 -27 0 -11 11 -29
25 -40 29 -23 32 -36 8 -34 -10 0 -19 -7 -21 -16 -2 -13 3 -18 18 -18 19 0 21
-4 15 -27 -4 -16 -7 -28 -8 -28 -13 0 -42 -26 -42 -36 0 -8 -5 -17 -11 -21
-19 -12 -68 -18 -83 -9 -15 9 -63 -11 -61 -25 1 -5 18 -15 38 -21 20 -7 27
-11 15 -9 -13 2 -25 1 -27 -3 -3 -4 -21 -6 -40 -5 -26 2 -36 -1 -36 -12 0 -11
-4 -12 -19 -2 -15 9 -23 7 -42 -10 -35 -34 -79 -28 -57 8 14 22 3 51 -16 44
-8 -3 -22 -17 -32 -32 -16 -24 -16 -26 1 -38 24 -18 10 -34 -31 -34 -19 0 -34
-4 -34 -10 0 -5 -9 -10 -20 -10 -12 0 -17 -5 -14 -14 6 -16 -36 -30 -50 -16
-16 16 -23 12 -30 -17 -7 -32 -43 -79 -53 -69 -4 3 4 20 16 37 13 17 20 33 16
37 -11 12 -39 -14 -50 -47 -16 -48 -70 -99 -99 -94 -24 5 -44 -21 -26 -32 17
-11 11 -20 -15 -21 -40 -3 -55 -12 -55 -34 0 -22 -10 -26 -27 -9 -7 7 -18 3
-37 -16 -14 -14 -26 -31 -27 -38 0 -9 -2 -9 -6 1 -7 17 -33 15 -56 -6 -11 -9
-17 -11 -13 -4 12 21 -5 38 -19 18 -12 -16 -14 -16 -30 0 -12 12 -19 14 -28 5
-6 -6 -19 -11 -29 -11 -17 0 -18 1 -2 25 23 35 13 40 -29 15 l-35 -21 -5 21
c-3 14 -13 20 -31 20 -16 0 -26 6 -27 15 -1 8 -2 21 -3 28 -1 6 -10 13 -21 13
-11 1 -26 2 -32 3 -7 1 -13 8 -13 16 0 9 -6 12 -15 9 -8 -4 -15 -1 -15 5 0 7
7 14 15 17 12 5 13 10 4 20 -8 10 -16 11 -30 3 -24 -13 -44 -2 -30 15 13 15 4
27 -13 20 -7 -3 -19 2 -26 11 -12 14 -10 20 18 42 18 13 32 29 32 34 0 17 -29
9 -40 -11 -16 -30 -29 -24 -25 13 4 46 21 83 46 100 15 11 20 22 16 37 -3 14
1 24 14 30 15 8 19 7 19 -5 0 -8 6 -15 13 -15 21 1 47 26 47 48 0 22 22 35 45
26 8 -4 15 -1 15 5 0 11 70 45 78 37 2 -3 -1 -19 -7 -36 -8 -25 -8 -35 3 -46
19 -18 30 -18 22 1 -3 8 6 28 19 44 14 16 25 36 25 45 0 16 87 62 98 52 2 -3
16 4 30 14 36 29 54 26 49 -7 -4 -23 -1 -28 18 -29 16 -1 25 5 29 19 6 26 -2
40 -20 33 -8 -3 -14 -1 -14 5 0 11 49 59 61 59 4 0 27 18 50 40 43 40 72 45
91 16 6 -8 8 -8 8 0 0 7 9 14 21 17 28 8 21 39 -11 47 -25 6 -25 6 5 14 17 4
37 17 46 28 9 12 25 22 35 23 11 1 26 5 34 8 43 18 189 15 201 -4z"/>
<path d="M1120 1375 c-9 -11 -10 -19 -3 -26 7 -7 14 -5 23 6 9 11 10 19 3 26
-7 7 -14 5 -23 -6z"/>
<path d="M1002 1369 c2 -6 8 -10 13 -10 5 0 11 4 13 10 2 6 -4 11 -13 11 -9 0
-15 -5 -13 -11z"/>
<path d="M913 1333 c-20 -8 -15 -23 7 -23 11 0 20 7 20 15 0 15 -6 17 -27 8z"/>
<path d="M1020 1330 c0 -5 5 -10 10 -10 6 0 10 5 10 10 0 6 -4 10 -10 10 -5 0
-10 -4 -10 -10z"/>
<path d="M1065 1332 c-15 -11 -18 -55 -3 -49 7 2 12 12 12 21 -1 9 4 16 12 16
8 0 14 5 14 10 0 12 -20 13 -35 2z"/>
<path d="M942 1307 c-29 -31 -28 -37 7 -37 33 0 54 20 45 44 -9 22 -27 20 -52
-7z"/>
<path d="M970 1255 c-9 -11 -10 -19 -3 -26 14 -14 43 0 43 22 0 23 -23 25 -40
4z"/>
<path d="M880 1250 c0 -5 5 -10 10 -10 6 0 10 5 10 10 0 6 -4 10 -10 10 -5 0
-10 -4 -10 -10z"/>
<path d="M1089 1240 c-20 -16 -22 -21 -9 -29 8 -6 15 -27 17 -47 1 -20 6 -41
12 -47 5 -5 7 -16 4 -23 -3 -9 2 -14 15 -14 25 0 38 18 24 32 -7 7 -8 17 -2
29 8 14 6 16 -10 12 -16 -4 -19 -2 -14 12 4 10 1 21 -7 25 -11 7 -10 12 4 28
36 40 8 58 -34 22z"/>
<path d="M1295 1250 c-8 -13 12 -40 30 -40 16 0 47 35 38 43 -10 11 -61 8 -68
-3z"/>
<path d="M897 1233 c-13 -12 -7 -33 8 -33 8 0 15 9 15 20 0 20 -11 26 -23 13z"/>
<path d="M1140 1225 c-13 -16 -6 -35 14 -35 17 0 48 35 39 43 -11 12 -40 8
-53 -8z"/>
<path d="M745 1220 c-3 -5 1 -10 9 -10 9 0 16 5 16 10 0 6 -4 10 -9 10 -6 0
-13 -4 -16 -10z"/>
<path d="M1260 1221 c0 -6 5 -13 10 -16 6 -3 10 1 10 9 0 9 -4 16 -10 16 -5 0
-10 -4 -10 -9z"/>
<path d="M1370 1208 c1 -13 24 -48 32 -48 3 0 5 6 5 13 0 6 4 20 8 30 6 14 2
17 -19 17 -14 0 -26 -6 -26 -12z"/>
<path d="M805 1196 c-11 -8 -16 -19 -12 -30 4 -10 1 -19 -8 -22 -10 -4 -15
-20 -15 -46 0 -35 3 -39 22 -36 27 4 36 28 11 28 -17 1 -17 2 2 16 11 8 26 12
34 9 8 -3 18 0 23 7 6 11 10 10 17 -1 11 -17 47 1 56 29 3 11 11 20 16 20 5 0
9 5 9 10 0 6 -7 10 -15 10 -8 0 -15 -5 -15 -11 0 -5 -5 -7 -11 -4 -5 4 -18 0
-27 -8 -16 -14 -42 -21 -67 -18 -5 0 1 8 13 17 12 8 22 22 22 30 0 18 -30 18
-55 0z"/>
<path d="M995 1189 c-4 -6 -5 -13 -2 -16 7 -7 27 6 27 18 0 12 -17 12 -25 -2z"/>
<path d="M1315 1191 c-6 -11 9 -23 19 -14 9 9 7 23 -3 23 -6 0 -12 -4 -16 -9z"/>
<path d="M703 1176 c-20 -9 -32 -26 -19 -26 16 0 56 21 56 30 0 12 -7 11 -37
-4z"/>
<path d="M1270 1175 c0 -8 4 -15 9 -15 5 0 11 7 15 15 3 9 0 15 -9 15 -8 0
-15 -7 -15 -15z"/>
<path d="M957 1163 c-11 -10 -8 -41 4 -48 5 -4 19 1 30 11 14 13 16 20 8 31
-12 14 -32 17 -42 6z"/>
<path d="M1218 1159 c-21 -12 -24 -39 -5 -39 17 0 37 20 37 37 0 15 -9 16 -32
2z"/>
<path d="M738 1141 c-19 -19 -24 -41 -9 -41 11 0 41 39 41 52 0 13 -14 8 -32
-11z"/>
<path d="M1052 1148 c-7 -7 -12 -19 -12 -28 0 -9 -5 -21 -12 -28 -7 -7 -8 -12
-4 -12 14 0 66 62 60 71 -7 12 -18 11 -32 -3z"/>
<path d="M1427 1146 c-7 -18 1 -26 25 -26 13 0 18 6 16 17 -4 22 -34 29 -41 9z"/>
<path d="M687 1139 c-20 -12 -23 -29 -3 -29 17 0 40 26 29 33 -5 3 -16 1 -26
-4z"/>
<path d="M1278 1139 c-19 -11 -24 -34 -9 -44 12 -7 52 35 45 47 -7 10 -15 10
-36 -3z"/>
<path d="M1372 1139 c-24 -9 -26 -29 -5 -36 11 -4 39 35 31 42 -2 1 -14 -1
-26 -6z"/>
<path d="M1080 1110 c0 -5 5 -10 11 -10 5 0 7 5 4 10 -3 6 -8 10 -11 10 -2 0
-4 -4 -4 -10z"/>
<path d="M1431 1096 c-8 -10 -8 -16 3 -25 10 -9 16 -8 26 3 12 15 6 36 -9 36
-5 0 -14 -6 -20 -14z"/>
<path d="M719 1079 c-16 -13 -20 -22 -12 -25 7 -3 10 -11 7 -19 -3 -7 -1 -16
5 -20 7 -4 7 -10 -1 -19 -11 -11 -15 -11 -24 3 -10 13 -16 13 -35 4 -13 -7
-33 -13 -44 -15 -27 -4 -34 -48 -8 -48 10 0 23 8 30 19 8 13 19 17 39 13 l27
-5 -23 -17 c-13 -10 -20 -22 -16 -29 11 -18 36 -13 36 7 0 26 11 34 28 19 13
-10 14 -9 10 3 -3 8 1 32 8 52 8 23 9 40 3 43 -5 4 -6 17 -3 31 8 29 3 30 -27
3z"/>
<path d="M950 1090 c0 -5 5 -10 11 -10 5 0 7 5 4 10 -3 6 -8 10 -11 10 -2 0
-4 -4 -4 -10z"/>
<path d="M966 1067 c-22 -20 -36 -40 -32 -46 11 -17 36 -13 43 7 3 9 13 25 21
34 29 34 5 38 -32 5z"/>
<path d="M856 1081 c-4 -7 -5 -15 -2 -18 9 -9 19 4 14 18 -4 11 -6 11 -12 0z"/>
<path d="M1052 1074 c-12 -8 -22 -19 -22 -25 0 -16 50 -10 57 7 9 25 -10 36
-35 18z"/>
<path d="M1277 1066 c-6 -15 1 -26 15 -26 4 0 8 9 8 20 0 23 -15 27 -23 6z"/>
<path d="M1352 1068 c3 -7 13 -15 24 -17 16 -3 17 -1 5 13 -16 19 -34 21 -29
4z"/>
<path d="M1208 1063 c7 -3 16 -2 19 1 4 3 -2 6 -13 5 -11 0 -14 -3 -6 -6z"/>
<path d="M804 1049 c-3 -6 -1 -15 6 -19 7 -5 13 -22 12 -39 -1 -35 13 -40 44
-15 13 11 15 17 7 20 -7 3 -13 15 -13 26 0 14 -5 18 -15 14 -9 -3 -15 0 -15 9
0 18 -16 20 -26 4z"/>
<path d="M1454 1045 c-18 -13 -18 -15 -1 -32 13 -13 21 -15 34 -7 25 16 27 31
5 43 -14 7 -24 6 -38 -4z"/>
<path d="M655 1039 c-4 -6 -5 -13 -2 -16 7 -7 27 6 27 18 0 12 -17 12 -25 -2z"/>
<path d="M1083 1033 c-15 -5 -18 -33 -4 -33 13 0 33 28 24 33 -4 2 -14 2 -20
0z"/>
<path d="M523 1023 c-17 -6 -16 -30 1 -36 8 -3 16 2 19 14 6 21 -1 29 -20 22z"/>
<path d="M605 1020 c3 -5 10 -10 16 -10 5 0 9 5 9 10 0 6 -7 10 -16 10 -8 0
-12 -4 -9 -10z"/>
<path d="M986 1015 c-15 -12 -17 -18 -8 -27 15 -15 66 6 59 25 -6 18 -29 19
-51 2z"/>
<path d="M1141 1021 c-18 -12 -6 -45 14 -38 9 4 12 1 9 -8 -8 -19 18 -76 31
-71 5 2 9 9 7 15 -1 7 4 19 13 27 8 9 15 21 15 28 0 15 -30 44 -30 30 0 -5 -5
-1 -11 9 -11 19 -27 21 -48 8z"/>
<path d="M1386 1011 c-19 -21 -14 -41 8 -41 8 0 19 7 26 16 11 12 11 18 -2 30
-13 13 -16 12 -32 -5z"/>
<path d="M470 1005 c-7 -9 -8 -15 -2 -15 5 0 12 7 16 15 3 8 4 15 2 15 -2 0
-9 -7 -16 -15z"/>
<path d="M1236 1001 c-7 -11 18 -33 27 -24 4 3 7 12 7 20 0 15 -26 18 -34 4z"/>
<path d="M880 965 c-10 -12 -10 -19 -2 -27 16 -16 42 -2 42 22 0 24 -22 26
-40 5z"/>
<path d="M542 958 c-7 -7 -12 -17 -12 -24 0 -6 -7 -14 -15 -18 -8 -3 -15 -17
-15 -31 0 -20 5 -25 24 -25 25 0 43 27 27 43 -5 5 -2 16 10 28 10 10 19 24 19
29 0 14 -23 13 -38 -2z"/>
<path d="M1114 955 c-7 -18 3 -35 22 -35 8 0 14 10 14 25 0 27 -27 35 -36 10z"/>
<path d="M483 953 c-7 -2 -13 -11 -13 -20 0 -20 34 -12 38 10 3 17 -3 20 -25
10z"/>
<path d="M773 953 c-17 -6 -16 -30 1 -36 16 -6 36 11 36 30 0 13 -15 16 -37 6z"/>
<path d="M1030 945 c-10 -12 -10 -19 -2 -27 13 -13 42 6 42 28 0 19 -24 18
-40 -1z"/>
<path d="M1258 946 c-28 -10 -38 -39 -18 -51 14 -9 60 22 60 40 0 20 -11 23
-42 11z"/>
<path d="M940 935 c0 -9 6 -12 15 -9 8 4 15 10 15 15 0 5 -7 9 -15 9 -8 0 -15
-7 -15 -15z"/>
<path d="M395 929 c-4 -6 -5 -12 -2 -15 2 -3 7 2 10 11 7 17 1 20 -8 4z"/>
<path d="M976 924 c-4 -9 -4 -19 -1 -22 7 -8 35 19 29 29 -8 14 -21 11 -28 -7z"/>
<path d="M817 923 c-12 -11 -8 -23 8 -23 8 0 15 7 15 15 0 16 -12 20 -23 8z"/>
<path d="M405 900 c-8 -13 4 -32 16 -25 12 8 12 35 0 35 -6 0 -13 -4 -16 -10z"/>
<path d="M455 900 c3 -5 8 -10 11 -10 2 0 4 5 4 10 0 6 -5 10 -11 10 -5 0 -7
-4 -4 -10z"/>
<path d="M610 895 c-15 -18 -6 -45 15 -45 16 0 36 39 28 53 -7 12 -30 8 -43
-8z"/>
<path d="M846 894 c-8 -21 -1 -28 19 -20 9 3 15 11 13 18 -7 19 -25 20 -32 2z"/>
<path d="M286 884 c-8 -22 -8 -24 8 -24 8 0 16 -3 19 -7 2 -5 2 -2 0 5 -1 8
-3 20 -3 28 0 19 -16 18 -24 -2z"/>
<path d="M352 873 c-26 -32 -27 -46 -8 -62 11 -9 20 -10 35 -1 22 11 29 50 10
50 -6 0 -8 9 -4 20 9 28 -7 25 -33 -7z"/>
<path d="M685 890 c-3 -5 -1 -10 4 -10 6 0 11 5 11 10 0 6 -2 10 -4 10 -3 0
-8 -4 -11 -10z"/>
<path d="M931 883 c2 -10 0 -23 -4 -30 -11 -17 2 -60 20 -67 20 -8 33 2 26 20
-3 8 2 23 12 34 18 20 11 45 -11 36 -8 -3 -13 0 -11 6 1 7 -6 14 -16 16 -13 3
-18 -1 -16 -15z"/>
<path d="M746 883 c-11 -11 -6 -23 9 -23 8 0 15 4 15 9 0 13 -16 22 -24 14z"/>
<path d="M186 863 c-8 -19 8 -38 23 -29 16 10 13 46 -3 46 -8 0 -17 -8 -20
-17z"/>
<path d="M423 863 c-3 -10 -8 -21 -10 -25 -2 -4 1 -9 5 -12 5 -3 14 6 20 19 7
15 8 26 2 30 -6 4 -13 -2 -17 -12z"/>
<path d="M883 868 c-19 -25 -23 -37 -14 -42 12 -8 41 21 41 40 0 17 -14 18
-27 2z"/>
<path d="M680 860 c0 -5 5 -10 10 -10 6 0 10 5 10 10 0 6 -4 10 -10 10 -5 0
-10 -4 -10 -10z"/>
<path d="M1037 863 c-4 -3 -7 -15 -7 -25 0 -26 24 -17 28 10 3 21 -8 29 -21
15z"/>
<path d="M560 839 c0 -6 -6 -9 -14 -6 -16 6 -42 -18 -29 -26 10 -6 58 -1 72 8
18 11 12 35 -9 35 -11 0 -20 -5 -20 -11z"/>
<path d="M274 826 c-8 -22 3 -33 18 -18 9 9 9 15 0 24 -9 9 -13 7 -18 -6z"/>
<path d="M708 826 c-10 -7 -18 -23 -18 -35 0 -19 3 -20 20 -11 11 6 20 17 20
25 0 8 5 15 10 15 6 0 10 5 10 10 0 14 -22 12 -42 -4z"/>
<path d="M764 823 c-3 -10 -10 -26 -16 -37 -12 -22 3 -42 25 -33 9 3 15 20 15
46 1 41 -14 56 -24 24z"/>
<path d="M197 799 c-27 -27 -31 -59 -8 -59 5 0 7 -9 4 -20 -4 -13 0 -20 10
-20 21 0 38 25 31 45 -5 11 -1 22 10 31 15 10 15 15 4 33 -16 26 -17 26 -51
-10z"/>
<path d="M640 815 c0 -8 5 -15 10 -15 6 0 10 7 10 15 0 8 -4 15 -10 15 -5 0
-10 -7 -10 -15z"/>
<path d="M160 805 c0 -8 5 -15 10 -15 6 0 10 7 10 15 0 8 -4 15 -10 15 -5 0
-10 -7 -10 -15z"/>
<path d="M480 812 c0 -12 19 -26 26 -19 2 2 -2 10 -11 17 -9 8 -15 8 -15 2z"/>
<path d="M597 809 c-20 -12 -23 -59 -4 -59 18 0 37 21 37 41 0 23 -12 30 -33
18z"/>
<path d="M810 805 c-7 -9 -10 -19 -6 -22 8 -9 38 9 44 25 5 17 -23 15 -38 -3z"/>
<path d="M387 803 c-3 -7 -3 -24 2 -84 1 -12 8 -15 26 -11 24 4 36 32 14 32
-6 0 -9 14 -7 32 2 24 -1 34 -14 36 -9 2 -18 -1 -21 -5z"/>
<path d="M865 800 c-3 -5 1 -10 9 -10 9 0 16 5 16 10 0 6 -4 10 -9 10 -6 0
-13 -4 -16 -10z"/>
<path d="M314 725 c-20 -30 -40 -52 -44 -50 -4 3 -13 -2 -20 -10 -10 -12 -9
-16 5 -21 10 -4 20 -1 25 6 4 7 13 9 19 5 16 -9 41 13 34 31 -3 8 0 14 6 14 6
0 11 5 11 11 0 5 -6 7 -12 3 -7 -5 -3 5 10 20 24 31 28 46 12 46 -5 0 -26 -25
-46 -55z"/>
<path d="M823 753 c-10 -16 -21 -30 -25 -33 -14 -11 -27 -59 -18 -65 16 -10
30 4 30 30 0 15 12 33 31 48 18 14 29 29 25 36 -11 18 -24 13 -43 -16z"/>
<path d="M535 740 c-15 -17 -16 -24 -5 -49 9 -23 9 -34 0 -51 -9 -18 -9 -24 0
-30 9 -5 6 -10 -10 -15 -21 -7 -21 -8 -6 -23 23 -23 50 -4 52 36 1 17 4 38 8
47 3 9 0 25 -7 35 -9 16 -9 24 0 39 21 33 -4 42 -32 11z"/>
<path d="M606 741 c-15 -16 -15 -19 -1 -31 8 -7 15 -18 15 -24 0 -6 -4 -5 -9
3 -5 7 -14 10 -20 7 -8 -5 -7 -11 3 -22 19 -19 35 -18 43 3 4 9 15 25 25 35
15 15 17 22 7 34 -16 19 -43 18 -63 -5z"/>
<path d="M250 732 c0 -10 -5 -23 -12 -30 -7 -7 -8 -12 -4 -12 12 0 45 44 39
52 -8 15 -23 8 -23 -10z"/>
<path d="M475 721 c-3 -5 -1 -12 5 -16 12 -7 30 2 30 16 0 12 -27 12 -35 0z"/>
<path d="M686 711 c-12 -13 -14 -21 -6 -26 16 -10 40 2 40 19 0 24 -16 27 -34
7z"/>
<path d="M451 704 c0 -11 3 -14 6 -6 3 7 2 16 -1 19 -3 4 -6 -2 -5 -13z"/>
<path d="M747 713 c-10 -9 -8 -33 2 -33 5 0 11 9 14 20 5 20 -3 26 -16 13z"/>
<path d="M155 680 c-4 -6 3 -10 14 -10 25 0 27 6 6 13 -8 4 -17 2 -20 -3z"/>
<path d="M415 653 c8 -35 11 -37 30 -30 19 8 20 27 0 27 -8 0 -15 7 -15 15 0
8 -5 15 -11 15 -7 0 -9 -10 -4 -27z"/>
<path d="M344 649 c-9 -15 5 -26 41 -34 29 -6 29 -6 11 9 -11 9 -14 16 -8 16
7 0 12 5 12 10 0 14 -47 13 -56 -1z"/>
<path d="M730 649 c0 -5 5 -7 10 -4 6 3 10 8 10 11 0 2 -4 4 -10 4 -5 0 -10
-5 -10 -11z"/>
<path d="M300 605 c0 -27 9 -32 28 -13 18 18 14 38 -8 38 -15 0 -20 -7 -20
-25z"/>
<path d="M580 611 c0 -5 7 -14 15 -21 12 -10 19 -10 28 -1 9 9 9 14 -3 21 -19
12 -40 13 -40 1z"/>
<path d="M407 584 c-14 -14 -7 -35 11 -32 9 2 17 10 17 17 0 16 -18 25 -28 15z"/>
<path d="M457 573 c-12 -11 -8 -23 8 -23 8 0 15 7 15 15 0 16 -12 20 -23 8z"/>
<path d="M320 560 c0 -5 5 -10 10 -10 6 0 10 -9 10 -20 0 -24 13 -26 30 -4 11
13 10 16 -8 21 -12 3 -22 9 -22 14 0 5 -4 9 -10 9 -5 0 -10 -4 -10 -10z"/>
<path d="M557 533 c-4 -3 -7 -17 -7 -30 0 -33 22 -24 26 10 3 26 -5 34 -19 20z"/>
<path d="M470 505 c0 -8 7 -15 15 -15 8 0 15 7 15 15 0 8 -7 15 -15 15 -8 0
-15 -7 -15 -15z"/>
</g>
</svg>
